<mxfile host="app.diagrams.net" modified="2023-12-01T20:30:42.221Z" agent="Mozilla/5.0 (Windows NT 10.0; Win64; x64) AppleWebKit/537.36 (KHTML, like Gecko) Chrome/119.0.0.0 Safari/537.36" etag="E5CWWdROCVk_0Msuw29c" version="22.1.5" type="device">
  <diagram name="PÃ¡gina-1" id="k29LO2Y5olFIAJzZQsGU">
    <mxGraphModel dx="1050" dy="1691" grid="1" gridSize="10" guides="1" tooltips="1" connect="1" arrows="1" fold="1" page="1" pageScale="1" pageWidth="827" pageHeight="1169" math="0" shadow="0">
      <root>
        <mxCell id="0" />
        <mxCell id="1" parent="0" />
        <mxCell id="m8FWC069CCOMlwwMVzGk-7" value="&lt;font style=&quot;vertical-align: inherit;&quot;&gt;&lt;font style=&quot;vertical-align: inherit;&quot;&gt;&lt;font style=&quot;vertical-align: inherit;&quot;&gt;&lt;font style=&quot;vertical-align: inherit;&quot;&gt;utilizador&lt;/font&gt;&lt;/font&gt;&lt;/font&gt;&lt;/font&gt;" style="rounded=1;arcSize=10;whiteSpace=wrap;html=1;align=center;" parent="1" vertex="1">
          <mxGeometry x="263" y="-884" width="100" height="40" as="geometry" />
        </mxCell>
        <mxCell id="m8FWC069CCOMlwwMVzGk-33" value="&lt;font style=&quot;vertical-align: inherit;&quot;&gt;&lt;font style=&quot;vertical-align: inherit;&quot;&gt;&lt;font style=&quot;vertical-align: inherit;&quot;&gt;&lt;font style=&quot;vertical-align: inherit;&quot;&gt;&lt;font style=&quot;vertical-align: inherit;&quot;&gt;&lt;font style=&quot;vertical-align: inherit;&quot;&gt;anuncio&lt;/font&gt;&lt;/font&gt;&lt;/font&gt;&lt;/font&gt;&lt;/font&gt;&lt;/font&gt;" style="rounded=1;arcSize=10;whiteSpace=wrap;html=1;align=center;" parent="1" vertex="1">
          <mxGeometry x="482" y="-884" width="100" height="40" as="geometry" />
        </mxCell>
        <mxCell id="E28UukfkjvpVmiZsy1a2-1" value="&lt;font style=&quot;vertical-align: inherit;&quot;&gt;&lt;font style=&quot;vertical-align: inherit;&quot;&gt;meio_contato&lt;/font&gt;&lt;/font&gt;" style="rounded=1;arcSize=10;whiteSpace=wrap;html=1;align=center;" parent="1" vertex="1">
          <mxGeometry x="43" y="-884" width="100" height="40" as="geometry" />
        </mxCell>
        <mxCell id="wzNUpkMDeoSHkMWeM1DU-20" value="&lt;font style=&quot;vertical-align: inherit;&quot;&gt;&lt;font style=&quot;vertical-align: inherit;&quot;&gt;&lt;font style=&quot;vertical-align: inherit;&quot;&gt;&lt;font style=&quot;vertical-align: inherit;&quot;&gt;idUtilizador&lt;/font&gt;&lt;/font&gt;&lt;/font&gt;&lt;/font&gt;" style="text;html=1;align=center;verticalAlign=middle;resizable=0;points=[];autosize=1;strokeColor=none;fillColor=none;fontSize=12;" parent="1" vertex="1">
          <mxGeometry x="208" y="-844" width="80" height="30" as="geometry" />
        </mxCell>
        <mxCell id="wzNUpkMDeoSHkMWeM1DU-21" value="&lt;font style=&quot;vertical-align: inherit;&quot;&gt;&lt;font style=&quot;vertical-align: inherit;&quot;&gt;&lt;font style=&quot;vertical-align: inherit;&quot;&gt;&lt;font style=&quot;vertical-align: inherit;&quot;&gt;&lt;font style=&quot;vertical-align: inherit;&quot;&gt;&lt;font style=&quot;vertical-align: inherit;&quot;&gt;telefone&lt;/font&gt;&lt;/font&gt;&lt;/font&gt;&lt;/font&gt;&lt;/font&gt;&lt;/font&gt;" style="text;html=1;align=center;verticalAlign=middle;resizable=0;points=[];autosize=1;strokeColor=none;fillColor=none;fontSize=12;" parent="1" vertex="1">
          <mxGeometry x="213" y="-814" width="70" height="30" as="geometry" />
        </mxCell>
        <mxCell id="wzNUpkMDeoSHkMWeM1DU-22" value="&lt;font style=&quot;vertical-align: inherit;&quot;&gt;&lt;font style=&quot;vertical-align: inherit;&quot;&gt;&lt;font style=&quot;vertical-align: inherit;&quot;&gt;&lt;font style=&quot;vertical-align: inherit;&quot;&gt;&lt;font style=&quot;vertical-align: inherit;&quot;&gt;&lt;font style=&quot;vertical-align: inherit;&quot;&gt;&lt;font style=&quot;vertical-align: inherit;&quot;&gt;&lt;font style=&quot;vertical-align: inherit;&quot;&gt;nome&lt;/font&gt;&lt;/font&gt;&lt;/font&gt;&lt;/font&gt;&lt;/font&gt;&lt;/font&gt;&lt;/font&gt;&lt;/font&gt;" style="text;html=1;align=center;verticalAlign=middle;resizable=0;points=[];autosize=1;strokeColor=none;fillColor=none;fontSize=12;" parent="1" vertex="1">
          <mxGeometry x="223" y="-829" width="50" height="30" as="geometry" />
        </mxCell>
        <mxCell id="wzNUpkMDeoSHkMWeM1DU-37" value="1" style="edgeLabel;html=1;align=center;verticalAlign=middle;resizable=0;points=[];" parent="1" vertex="1" connectable="0">
          <mxGeometry x="511.99984908954764" y="-893.9980867978635" as="geometry">
            <mxPoint x="-21" y="-3" as="offset" />
          </mxGeometry>
        </mxCell>
        <mxCell id="MzITpE7bBOY1xuLxwlCT-6" value="tem" style="rhombus;whiteSpace=wrap;html=1;" parent="1" vertex="1">
          <mxGeometry x="183" y="-884" width="40" height="40" as="geometry" />
        </mxCell>
        <mxCell id="MzITpE7bBOY1xuLxwlCT-7" value="" style="endArrow=none;html=1;rounded=0;exitX=0;exitY=0.5;exitDx=0;exitDy=0;" parent="1" source="MzITpE7bBOY1xuLxwlCT-6" edge="1" target="E28UukfkjvpVmiZsy1a2-1">
          <mxGeometry width="50" height="50" relative="1" as="geometry">
            <mxPoint x="522.5" y="-724" as="sourcePoint" />
            <mxPoint x="523.5" y="-684" as="targetPoint" />
          </mxGeometry>
        </mxCell>
        <mxCell id="MzITpE7bBOY1xuLxwlCT-9" value="tem" style="rhombus;whiteSpace=wrap;html=1;" parent="1" vertex="1">
          <mxGeometry x="403" y="-884" width="40" height="40" as="geometry" />
        </mxCell>
        <mxCell id="MzITpE7bBOY1xuLxwlCT-10" value="" style="endArrow=none;html=1;rounded=0;entryX=1;entryY=0.5;entryDx=0;entryDy=0;exitX=0;exitY=0.5;exitDx=0;exitDy=0;" parent="1" source="MzITpE7bBOY1xuLxwlCT-9" target="m8FWC069CCOMlwwMVzGk-7" edge="1">
          <mxGeometry width="50" height="50" relative="1" as="geometry">
            <mxPoint x="393" y="-844" as="sourcePoint" />
            <mxPoint x="523.23" y="-794" as="targetPoint" />
          </mxGeometry>
        </mxCell>
        <mxCell id="MzITpE7bBOY1xuLxwlCT-11" value="" style="endArrow=none;html=1;rounded=0;exitX=1;exitY=0.5;exitDx=0;exitDy=0;entryX=0;entryY=0.5;entryDx=0;entryDy=0;" parent="1" source="MzITpE7bBOY1xuLxwlCT-9" target="m8FWC069CCOMlwwMVzGk-33" edge="1">
          <mxGeometry width="50" height="50" relative="1" as="geometry">
            <mxPoint x="553" y="-834" as="sourcePoint" />
            <mxPoint x="553.5" y="-794" as="targetPoint" />
          </mxGeometry>
        </mxCell>
        <mxCell id="--ZSGLMex57mhMtP0uRH-2" value="&lt;font style=&quot;vertical-align: inherit;&quot;&gt;&lt;font style=&quot;vertical-align: inherit;&quot;&gt;&lt;font style=&quot;vertical-align: inherit;&quot;&gt;&lt;font style=&quot;vertical-align: inherit;&quot;&gt;comentario&lt;/font&gt;&lt;/font&gt;&lt;/font&gt;&lt;/font&gt;" style="rounded=1;arcSize=10;whiteSpace=wrap;html=1;align=center;" vertex="1" parent="1">
          <mxGeometry x="373" y="-804" width="100" height="40" as="geometry" />
        </mxCell>
        <mxCell id="--ZSGLMex57mhMtP0uRH-5" value="" style="endArrow=none;html=1;rounded=0;exitX=0;exitY=0.5;exitDx=0;exitDy=0;entryX=1;entryY=0.5;entryDx=0;entryDy=0;" edge="1" parent="1" source="m8FWC069CCOMlwwMVzGk-7" target="MzITpE7bBOY1xuLxwlCT-6">
          <mxGeometry width="50" height="50" relative="1" as="geometry">
            <mxPoint x="301.5" y="-794" as="sourcePoint" />
            <mxPoint x="512" y="-774" as="targetPoint" />
          </mxGeometry>
        </mxCell>
        <mxCell id="--ZSGLMex57mhMtP0uRH-17" value="tem" style="rhombus;whiteSpace=wrap;html=1;" vertex="1" parent="1">
          <mxGeometry x="512" y="-804" width="40" height="40" as="geometry" />
        </mxCell>
        <mxCell id="--ZSGLMex57mhMtP0uRH-18" value="" style="endArrow=none;html=1;rounded=0;exitX=0;exitY=0.5;exitDx=0;exitDy=0;entryX=1;entryY=0.5;entryDx=0;entryDy=0;" edge="1" parent="1" source="--ZSGLMex57mhMtP0uRH-17" target="--ZSGLMex57mhMtP0uRH-2">
          <mxGeometry width="50" height="50" relative="1" as="geometry">
            <mxPoint x="498.5" y="-719" as="sourcePoint" />
            <mxPoint x="479.5" y="-719" as="targetPoint" />
          </mxGeometry>
        </mxCell>
        <mxCell id="--ZSGLMex57mhMtP0uRH-19" value="" style="endArrow=none;html=1;rounded=0;exitX=0.5;exitY=0;exitDx=0;exitDy=0;entryX=0.5;entryY=1;entryDx=0;entryDy=0;" edge="1" parent="1" source="--ZSGLMex57mhMtP0uRH-17" target="m8FWC069CCOMlwwMVzGk-33">
          <mxGeometry width="50" height="50" relative="1" as="geometry">
            <mxPoint x="658.5" y="-709" as="sourcePoint" />
            <mxPoint x="589.5" y="-739" as="targetPoint" />
          </mxGeometry>
        </mxCell>
        <mxCell id="--ZSGLMex57mhMtP0uRH-20" value="N" style="text;html=1;align=center;verticalAlign=middle;resizable=0;points=[];autosize=1;strokeColor=none;fillColor=none;" vertex="1" parent="1">
          <mxGeometry x="452" y="-865" width="30" height="30" as="geometry" />
        </mxCell>
        <mxCell id="--ZSGLMex57mhMtP0uRH-21" value="1" style="edgeLabel;html=1;align=center;verticalAlign=middle;resizable=0;points=[];" vertex="1" connectable="0" parent="1">
          <mxGeometry x="397.99984908954764" y="-849.9980867978635" as="geometry">
            <mxPoint x="-21" y="-3" as="offset" />
          </mxGeometry>
        </mxCell>
        <mxCell id="--ZSGLMex57mhMtP0uRH-22" value="N" style="text;html=1;align=center;verticalAlign=middle;resizable=0;points=[];autosize=1;strokeColor=none;fillColor=none;" vertex="1" parent="1">
          <mxGeometry x="143" y="-894" width="30" height="30" as="geometry" />
        </mxCell>
        <mxCell id="--ZSGLMex57mhMtP0uRH-23" value="1" style="edgeLabel;html=1;align=center;verticalAlign=middle;resizable=0;points=[];" vertex="1" connectable="0" parent="1">
          <mxGeometry x="267.99984908954764" y="-873.9980867978635" as="geometry">
            <mxPoint x="-21" y="-3" as="offset" />
          </mxGeometry>
        </mxCell>
        <mxCell id="--ZSGLMex57mhMtP0uRH-26" value="N" style="text;html=1;align=center;verticalAlign=middle;resizable=0;points=[];autosize=1;strokeColor=none;fillColor=none;fontSize=11;" vertex="1" parent="1">
          <mxGeometry x="473" y="-784" width="30" height="30" as="geometry" />
        </mxCell>
        <mxCell id="--ZSGLMex57mhMtP0uRH-27" value="1" style="edgeLabel;html=1;align=center;verticalAlign=middle;resizable=0;points=[];" vertex="1" connectable="0" parent="1">
          <mxGeometry x="558.4998490895476" y="-828.9980867978635" as="geometry">
            <mxPoint x="-21" y="-3" as="offset" />
          </mxGeometry>
        </mxCell>
        <mxCell id="--ZSGLMex57mhMtP0uRH-29" value="&lt;font style=&quot;vertical-align: inherit;&quot;&gt;&lt;font style=&quot;vertical-align: inherit;&quot;&gt;&lt;font style=&quot;vertical-align: inherit;&quot;&gt;&lt;font style=&quot;vertical-align: inherit;&quot;&gt;idAnuncio&lt;/font&gt;&lt;/font&gt;&lt;/font&gt;&lt;/font&gt;" style="text;html=1;align=center;verticalAlign=middle;resizable=0;points=[];autosize=1;strokeColor=none;fillColor=none;fontSize=12;" vertex="1" parent="1">
          <mxGeometry x="559.5" y="-834" width="80" height="30" as="geometry" />
        </mxCell>
        <mxCell id="--ZSGLMex57mhMtP0uRH-30" value="&lt;font style=&quot;vertical-align: inherit;&quot;&gt;&lt;font style=&quot;vertical-align: inherit;&quot;&gt;&lt;font style=&quot;vertical-align: inherit;&quot;&gt;&lt;font style=&quot;vertical-align: inherit;&quot;&gt;titulo&lt;/font&gt;&lt;/font&gt;&lt;/font&gt;&lt;/font&gt;" style="text;html=1;align=center;verticalAlign=middle;resizable=0;points=[];autosize=1;strokeColor=none;fillColor=none;fontSize=12;" vertex="1" parent="1">
          <mxGeometry x="574.5" y="-760" width="50" height="30" as="geometry" />
        </mxCell>
        <mxCell id="--ZSGLMex57mhMtP0uRH-31" value="&lt;font style=&quot;vertical-align: inherit;&quot;&gt;&lt;font style=&quot;vertical-align: inherit;&quot;&gt;&lt;font style=&quot;vertical-align: inherit;&quot;&gt;&lt;font style=&quot;vertical-align: inherit;&quot;&gt;descriÃ§ao&lt;/font&gt;&lt;/font&gt;&lt;/font&gt;&lt;/font&gt;" style="text;html=1;align=center;verticalAlign=middle;resizable=0;points=[];autosize=1;strokeColor=none;fillColor=none;fontSize=12;" vertex="1" parent="1">
          <mxGeometry x="567" y="-804" width="70" height="30" as="geometry" />
        </mxCell>
        <mxCell id="--ZSGLMex57mhMtP0uRH-32" value="&lt;font style=&quot;vertical-align: inherit;&quot;&gt;&lt;font style=&quot;vertical-align: inherit;&quot;&gt;&lt;font style=&quot;vertical-align: inherit;&quot;&gt;&lt;font style=&quot;vertical-align: inherit;&quot;&gt;preÃ§o&lt;/font&gt;&lt;/font&gt;&lt;/font&gt;&lt;/font&gt;" style="text;html=1;align=center;verticalAlign=middle;resizable=0;points=[];autosize=1;strokeColor=none;fillColor=none;fontSize=12;" vertex="1" parent="1">
          <mxGeometry x="574.5" y="-774" width="50" height="30" as="geometry" />
        </mxCell>
        <mxCell id="--ZSGLMex57mhMtP0uRH-33" value="&lt;font style=&quot;vertical-align: inherit;&quot;&gt;&lt;font style=&quot;vertical-align: inherit;&quot;&gt;&lt;font style=&quot;vertical-align: inherit;&quot;&gt;&lt;font style=&quot;vertical-align: inherit;&quot;&gt;estadoProduto&lt;/font&gt;&lt;/font&gt;&lt;/font&gt;&lt;/font&gt;" style="text;html=1;align=center;verticalAlign=middle;resizable=0;points=[];autosize=1;strokeColor=none;fillColor=none;fontSize=12;" vertex="1" parent="1">
          <mxGeometry x="552" y="-820" width="100" height="30" as="geometry" />
        </mxCell>
        <mxCell id="--ZSGLMex57mhMtP0uRH-34" value="&lt;font style=&quot;vertical-align: inherit;&quot;&gt;&lt;font style=&quot;vertical-align: inherit;&quot;&gt;&lt;font style=&quot;vertical-align: inherit;&quot;&gt;&lt;font style=&quot;vertical-align: inherit;&quot;&gt;pais&lt;/font&gt;&lt;/font&gt;&lt;/font&gt;&lt;/font&gt;" style="text;html=1;align=center;verticalAlign=middle;resizable=0;points=[];autosize=1;strokeColor=none;fillColor=none;fontSize=12;" vertex="1" parent="1">
          <mxGeometry x="574.5" y="-744" width="50" height="30" as="geometry" />
        </mxCell>
        <mxCell id="--ZSGLMex57mhMtP0uRH-35" value="&lt;font style=&quot;vertical-align: inherit;&quot;&gt;&lt;font style=&quot;vertical-align: inherit;&quot;&gt;&lt;font style=&quot;vertical-align: inherit;&quot;&gt;&lt;font style=&quot;vertical-align: inherit;&quot;&gt;regiao&lt;/font&gt;&lt;/font&gt;&lt;/font&gt;&lt;/font&gt;" style="text;html=1;align=center;verticalAlign=middle;resizable=0;points=[];autosize=1;strokeColor=none;fillColor=none;fontSize=12;" vertex="1" parent="1">
          <mxGeometry x="569.5" y="-790" width="60" height="30" as="geometry" />
        </mxCell>
        <mxCell id="--ZSGLMex57mhMtP0uRH-54" value="&lt;font style=&quot;vertical-align: inherit;&quot;&gt;&lt;font style=&quot;vertical-align: inherit;&quot;&gt;&lt;font style=&quot;vertical-align: inherit;&quot;&gt;&lt;font style=&quot;vertical-align: inherit;&quot;&gt;avaliaÃ§ao&lt;/font&gt;&lt;/font&gt;&lt;/font&gt;&lt;/font&gt;" style="rounded=1;arcSize=10;whiteSpace=wrap;html=1;align=center;" vertex="1" parent="1">
          <mxGeometry x="377" y="-1024" width="100" height="40" as="geometry" />
        </mxCell>
        <mxCell id="--ZSGLMex57mhMtP0uRH-55" value="&lt;font style=&quot;vertical-align: inherit;&quot;&gt;&lt;font style=&quot;vertical-align: inherit;&quot;&gt;&lt;font style=&quot;vertical-align: inherit;&quot;&gt;&lt;font style=&quot;vertical-align: inherit;&quot;&gt;&lt;font style=&quot;vertical-align: inherit;&quot;&gt;&lt;font style=&quot;vertical-align: inherit;&quot;&gt;keyword&lt;/font&gt;&lt;/font&gt;&lt;/font&gt;&lt;/font&gt;&lt;/font&gt;&lt;/font&gt;" style="rounded=1;arcSize=10;whiteSpace=wrap;html=1;align=center;" vertex="1" parent="1">
          <mxGeometry x="629.5" y="-964" width="100" height="40" as="geometry" />
        </mxCell>
        <mxCell id="--ZSGLMex57mhMtP0uRH-58" value="tem" style="rhombus;whiteSpace=wrap;html=1;" vertex="1" parent="1">
          <mxGeometry x="538.5" y="-964" width="40" height="40" as="geometry" />
        </mxCell>
        <mxCell id="--ZSGLMex57mhMtP0uRH-64" value="N" style="text;html=1;align=center;verticalAlign=middle;resizable=0;points=[];autosize=1;strokeColor=none;fillColor=none;" vertex="1" parent="1">
          <mxGeometry x="472" y="-1030" width="30" height="30" as="geometry" />
        </mxCell>
        <mxCell id="--ZSGLMex57mhMtP0uRH-66" value="tem" style="rhombus;whiteSpace=wrap;html=1;" vertex="1" parent="1">
          <mxGeometry x="484.5" y="-964" width="40" height="40" as="geometry" />
        </mxCell>
        <mxCell id="--ZSGLMex57mhMtP0uRH-67" value="" style="endArrow=none;html=1;rounded=0;exitX=0.5;exitY=1;exitDx=0;exitDy=0;entryX=0.75;entryY=0;entryDx=0;entryDy=0;" edge="1" parent="1" source="--ZSGLMex57mhMtP0uRH-66">
          <mxGeometry width="50" height="50" relative="1" as="geometry">
            <mxPoint x="504" y="-924" as="sourcePoint" />
            <mxPoint x="505" y="-884" as="targetPoint" />
          </mxGeometry>
        </mxCell>
        <mxCell id="--ZSGLMex57mhMtP0uRH-72" value="N" style="text;html=1;align=center;verticalAlign=middle;resizable=0;points=[];autosize=1;strokeColor=none;fillColor=none;" vertex="1" parent="1">
          <mxGeometry x="599.5" y="-970" width="30" height="30" as="geometry" />
        </mxCell>
        <mxCell id="--ZSGLMex57mhMtP0uRH-75" value="1" style="edgeLabel;html=1;align=center;verticalAlign=middle;resizable=0;points=[];" vertex="1" connectable="0" parent="1">
          <mxGeometry x="694.4998490895476" y="-873.9980867978635" as="geometry">
            <mxPoint x="-21" y="-3" as="offset" />
          </mxGeometry>
        </mxCell>
        <mxCell id="--ZSGLMex57mhMtP0uRH-76" value="&lt;font style=&quot;vertical-align: inherit;&quot;&gt;&lt;font style=&quot;vertical-align: inherit;&quot;&gt;&lt;font style=&quot;vertical-align: inherit;&quot;&gt;&lt;font style=&quot;vertical-align: inherit;&quot;&gt;idContato&lt;/font&gt;&lt;/font&gt;&lt;/font&gt;&lt;/font&gt;" style="text;html=1;align=center;verticalAlign=middle;resizable=0;points=[];autosize=1;strokeColor=none;fillColor=none;fontSize=12;" vertex="1" parent="1">
          <mxGeometry x="63" y="-934" width="70" height="30" as="geometry" />
        </mxCell>
        <mxCell id="--ZSGLMex57mhMtP0uRH-78" value="&lt;font style=&quot;vertical-align: inherit;&quot;&gt;&lt;font style=&quot;vertical-align: inherit;&quot;&gt;&lt;font style=&quot;vertical-align: inherit;&quot;&gt;&lt;font style=&quot;vertical-align: inherit;&quot;&gt;tipoContato&lt;/font&gt;&lt;/font&gt;&lt;/font&gt;&lt;/font&gt;" style="text;html=1;align=center;verticalAlign=middle;resizable=0;points=[];autosize=1;strokeColor=none;fillColor=none;fontSize=12;" vertex="1" parent="1">
          <mxGeometry x="58" y="-914" width="80" height="30" as="geometry" />
        </mxCell>
        <mxCell id="--ZSGLMex57mhMtP0uRH-80" value="faz" style="rhombus;whiteSpace=wrap;html=1;" vertex="1" parent="1">
          <mxGeometry x="293" y="-804" width="40" height="40" as="geometry" />
        </mxCell>
        <mxCell id="--ZSGLMex57mhMtP0uRH-81" value="" style="endArrow=none;html=1;rounded=0;exitX=0.5;exitY=0;exitDx=0;exitDy=0;entryX=0.5;entryY=1;entryDx=0;entryDy=0;" edge="1" parent="1" source="--ZSGLMex57mhMtP0uRH-80" target="m8FWC069CCOMlwwMVzGk-7">
          <mxGeometry width="50" height="50" relative="1" as="geometry">
            <mxPoint x="439.5" y="-704" as="sourcePoint" />
            <mxPoint x="313" y="-839" as="targetPoint" />
          </mxGeometry>
        </mxCell>
        <mxCell id="--ZSGLMex57mhMtP0uRH-82" value="" style="endArrow=none;html=1;rounded=0;exitX=0;exitY=0.5;exitDx=0;exitDy=0;entryX=1;entryY=0.5;entryDx=0;entryDy=0;" edge="1" parent="1" source="--ZSGLMex57mhMtP0uRH-2" target="--ZSGLMex57mhMtP0uRH-80">
          <mxGeometry width="50" height="50" relative="1" as="geometry">
            <mxPoint x="363" y="-769.24" as="sourcePoint" />
            <mxPoint x="324" y="-769.24" as="targetPoint" />
          </mxGeometry>
        </mxCell>
        <mxCell id="--ZSGLMex57mhMtP0uRH-83" value="N" style="text;html=1;align=center;verticalAlign=middle;resizable=0;points=[];autosize=1;strokeColor=none;fillColor=none;fontSize=11;" vertex="1" parent="1">
          <mxGeometry x="338" y="-784" width="30" height="30" as="geometry" />
        </mxCell>
        <mxCell id="--ZSGLMex57mhMtP0uRH-84" value="1" style="edgeLabel;html=1;align=center;verticalAlign=middle;resizable=0;points=[];" vertex="1" connectable="0" parent="1">
          <mxGeometry x="322.99984908954764" y="-828.9980867978635" as="geometry">
            <mxPoint x="-21" y="-3" as="offset" />
          </mxGeometry>
        </mxCell>
        <mxCell id="--ZSGLMex57mhMtP0uRH-85" value="idComentario" style="text;align=center;verticalAlign=middle;resizable=0;points=[];autosize=1;strokeColor=none;fillColor=none;fontSize=12;html=1;" vertex="1" parent="1">
          <mxGeometry x="382" y="-764" width="90" height="30" as="geometry" />
        </mxCell>
        <mxCell id="--ZSGLMex57mhMtP0uRH-86" value="&lt;font style=&quot;vertical-align: inherit;&quot;&gt;&lt;font style=&quot;vertical-align: inherit;&quot;&gt;&lt;font style=&quot;vertical-align: inherit;&quot;&gt;&lt;font style=&quot;vertical-align: inherit;&quot;&gt;texto&lt;/font&gt;&lt;/font&gt;&lt;/font&gt;&lt;/font&gt;" style="text;html=1;align=center;verticalAlign=middle;resizable=0;points=[];autosize=1;strokeColor=none;fillColor=none;fontSize=12;" vertex="1" parent="1">
          <mxGeometry x="398" y="-744" width="50" height="30" as="geometry" />
        </mxCell>
        <mxCell id="--ZSGLMex57mhMtP0uRH-87" value="&lt;font style=&quot;vertical-align: inherit;&quot;&gt;&lt;font style=&quot;vertical-align: inherit;&quot;&gt;&lt;font style=&quot;vertical-align: inherit;&quot;&gt;&lt;font style=&quot;vertical-align: inherit;&quot;&gt;idKeyword&lt;/font&gt;&lt;/font&gt;&lt;/font&gt;&lt;/font&gt;" style="text;html=1;align=center;verticalAlign=middle;resizable=0;points=[];autosize=1;strokeColor=none;fillColor=none;fontSize=12;" vertex="1" parent="1">
          <mxGeometry x="639.5" y="-1014" width="80" height="30" as="geometry" />
        </mxCell>
        <mxCell id="--ZSGLMex57mhMtP0uRH-88" value="&lt;font style=&quot;vertical-align: inherit;&quot;&gt;&lt;font style=&quot;vertical-align: inherit;&quot;&gt;&lt;font style=&quot;vertical-align: inherit;&quot;&gt;&lt;font style=&quot;vertical-align: inherit;&quot;&gt;palavraChave&lt;/font&gt;&lt;/font&gt;&lt;/font&gt;&lt;/font&gt;" style="text;html=1;align=center;verticalAlign=middle;resizable=0;points=[];autosize=1;strokeColor=none;fillColor=none;fontSize=12;" vertex="1" parent="1">
          <mxGeometry x="629.5" y="-994" width="100" height="30" as="geometry" />
        </mxCell>
        <mxCell id="--ZSGLMex57mhMtP0uRH-89" value="&lt;font style=&quot;vertical-align: inherit;&quot;&gt;&lt;font style=&quot;vertical-align: inherit;&quot;&gt;&lt;font style=&quot;vertical-align: inherit;&quot;&gt;&lt;font style=&quot;vertical-align: inherit;&quot;&gt;categoria&lt;/font&gt;&lt;/font&gt;&lt;/font&gt;&lt;/font&gt;" style="rounded=1;arcSize=10;whiteSpace=wrap;html=1;align=center;" vertex="1" parent="1">
          <mxGeometry x="684.5" y="-884" width="100" height="40" as="geometry" />
        </mxCell>
        <mxCell id="--ZSGLMex57mhMtP0uRH-90" value="tem" style="rhombus;whiteSpace=wrap;html=1;" vertex="1" parent="1">
          <mxGeometry x="614.5" y="-884" width="40" height="40" as="geometry" />
        </mxCell>
        <mxCell id="--ZSGLMex57mhMtP0uRH-91" value="" style="endArrow=none;html=1;rounded=0;exitX=0;exitY=0.5;exitDx=0;exitDy=0;entryX=1;entryY=0.5;entryDx=0;entryDy=0;" edge="1" parent="1" source="--ZSGLMex57mhMtP0uRH-89" target="--ZSGLMex57mhMtP0uRH-90">
          <mxGeometry width="50" height="50" relative="1" as="geometry">
            <mxPoint x="698.5" y="-864" as="sourcePoint" />
            <mxPoint x="947.5" y="-774" as="targetPoint" />
          </mxGeometry>
        </mxCell>
        <mxCell id="--ZSGLMex57mhMtP0uRH-93" value="" style="endArrow=none;html=1;rounded=0;exitX=0;exitY=0.5;exitDx=0;exitDy=0;entryX=1;entryY=0.5;entryDx=0;entryDy=0;" edge="1" parent="1" source="--ZSGLMex57mhMtP0uRH-90" target="m8FWC069CCOMlwwMVzGk-33">
          <mxGeometry width="50" height="50" relative="1" as="geometry">
            <mxPoint x="652.5" y="-829" as="sourcePoint" />
            <mxPoint x="613" y="-829" as="targetPoint" />
          </mxGeometry>
        </mxCell>
        <mxCell id="--ZSGLMex57mhMtP0uRH-94" value="&lt;font style=&quot;vertical-align: inherit;&quot;&gt;&lt;font style=&quot;vertical-align: inherit;&quot;&gt;&lt;font style=&quot;vertical-align: inherit;&quot;&gt;&lt;font style=&quot;vertical-align: inherit;&quot;&gt;idCategoria&lt;/font&gt;&lt;/font&gt;&lt;/font&gt;&lt;/font&gt;" style="text;html=1;align=center;verticalAlign=middle;resizable=0;points=[];autosize=1;strokeColor=none;fillColor=none;fontSize=12;" vertex="1" parent="1">
          <mxGeometry x="694.5" y="-844" width="80" height="30" as="geometry" />
        </mxCell>
        <mxCell id="--ZSGLMex57mhMtP0uRH-95" value="nome" style="text;html=1;align=center;verticalAlign=middle;resizable=0;points=[];autosize=1;strokeColor=none;fillColor=none;fontSize=12;" vertex="1" parent="1">
          <mxGeometry x="709.5" y="-814" width="50" height="30" as="geometry" />
        </mxCell>
        <mxCell id="--ZSGLMex57mhMtP0uRH-96" value="descriÃ§ao" style="text;html=1;align=center;verticalAlign=middle;resizable=0;points=[];autosize=1;strokeColor=none;fillColor=none;fontSize=12;" vertex="1" parent="1">
          <mxGeometry x="699.5" y="-829" width="70" height="30" as="geometry" />
        </mxCell>
        <mxCell id="--ZSGLMex57mhMtP0uRH-97" value="" style="endArrow=none;html=1;rounded=0;exitX=0;exitY=0.5;exitDx=0;exitDy=0;entryX=1;entryY=0.5;entryDx=0;entryDy=0;" edge="1" parent="1" source="--ZSGLMex57mhMtP0uRH-55" target="--ZSGLMex57mhMtP0uRH-58">
          <mxGeometry width="50" height="50" relative="1" as="geometry">
            <mxPoint x="629.5" y="-944.3" as="sourcePoint" />
            <mxPoint x="599.5" y="-944.3" as="targetPoint" />
          </mxGeometry>
        </mxCell>
        <mxCell id="--ZSGLMex57mhMtP0uRH-98" value="" style="endArrow=none;html=1;rounded=0;exitX=0.5;exitY=1;exitDx=0;exitDy=0;entryX=0.75;entryY=0;entryDx=0;entryDy=0;" edge="1" parent="1">
          <mxGeometry width="50" height="50" relative="1" as="geometry">
            <mxPoint x="558.21" y="-924" as="sourcePoint" />
            <mxPoint x="558.21" y="-884" as="targetPoint" />
          </mxGeometry>
        </mxCell>
        <mxCell id="--ZSGLMex57mhMtP0uRH-99" value="" style="endArrow=none;html=1;rounded=0;exitX=1;exitY=0.5;exitDx=0;exitDy=0;entryX=0.5;entryY=0;entryDx=0;entryDy=0;" edge="1" parent="1" source="--ZSGLMex57mhMtP0uRH-54" target="--ZSGLMex57mhMtP0uRH-66">
          <mxGeometry width="50" height="50" relative="1" as="geometry">
            <mxPoint x="503" y="-1019" as="sourcePoint" />
            <mxPoint x="503" y="-979" as="targetPoint" />
            <Array as="points">
              <mxPoint x="505" y="-1004" />
            </Array>
          </mxGeometry>
        </mxCell>
        <mxCell id="--ZSGLMex57mhMtP0uRH-100" value="vende" style="rhombus;whiteSpace=wrap;html=1;" vertex="1" parent="1">
          <mxGeometry x="402" y="-950" width="50" height="46" as="geometry" />
        </mxCell>
        <mxCell id="--ZSGLMex57mhMtP0uRH-102" value="" style="endArrow=none;html=1;rounded=0;exitX=0.5;exitY=1;exitDx=0;exitDy=0;entryX=0.25;entryY=0;entryDx=0;entryDy=0;" edge="1" parent="1" source="--ZSGLMex57mhMtP0uRH-104" target="m8FWC069CCOMlwwMVzGk-7">
          <mxGeometry width="50" height="50" relative="1" as="geometry">
            <mxPoint x="303" y="-920" as="sourcePoint" />
            <mxPoint x="303" y="-890" as="targetPoint" />
          </mxGeometry>
        </mxCell>
        <mxCell id="--ZSGLMex57mhMtP0uRH-103" value="" style="endArrow=none;html=1;rounded=0;entryX=0.75;entryY=0;entryDx=0;entryDy=0;exitX=0;exitY=0.5;exitDx=0;exitDy=0;" edge="1" parent="1" source="--ZSGLMex57mhMtP0uRH-100" target="m8FWC069CCOMlwwMVzGk-7">
          <mxGeometry width="50" height="50" relative="1" as="geometry">
            <mxPoint x="343" y="-920" as="sourcePoint" />
            <mxPoint x="353" y="-910" as="targetPoint" />
            <Array as="points">
              <mxPoint x="338" y="-927" />
            </Array>
          </mxGeometry>
        </mxCell>
        <mxCell id="--ZSGLMex57mhMtP0uRH-104" value="compra" style="rhombus;whiteSpace=wrap;html=1;" vertex="1" parent="1">
          <mxGeometry x="263" y="-984" width="50" height="46" as="geometry" />
        </mxCell>
        <mxCell id="--ZSGLMex57mhMtP0uRH-106" value="" style="endArrow=none;html=1;rounded=0;exitX=0;exitY=0.5;exitDx=0;exitDy=0;entryX=0.5;entryY=0;entryDx=0;entryDy=0;" edge="1" parent="1" source="--ZSGLMex57mhMtP0uRH-54" target="--ZSGLMex57mhMtP0uRH-104">
          <mxGeometry width="50" height="50" relative="1" as="geometry">
            <mxPoint x="288" y="-1020" as="sourcePoint" />
            <mxPoint x="288" y="-974" as="targetPoint" />
            <Array as="points">
              <mxPoint x="288" y="-1004" />
            </Array>
          </mxGeometry>
        </mxCell>
        <mxCell id="--ZSGLMex57mhMtP0uRH-107" value="" style="endArrow=none;html=1;rounded=0;entryX=0.5;entryY=0;entryDx=0;entryDy=0;exitX=0.5;exitY=1;exitDx=0;exitDy=0;" edge="1" parent="1" source="--ZSGLMex57mhMtP0uRH-54" target="--ZSGLMex57mhMtP0uRH-100">
          <mxGeometry width="50" height="50" relative="1" as="geometry">
            <mxPoint x="338" y="-1020" as="sourcePoint" />
            <mxPoint x="338" y="-974" as="targetPoint" />
            <Array as="points">
              <mxPoint x="427" y="-950" />
            </Array>
          </mxGeometry>
        </mxCell>
        <mxCell id="--ZSGLMex57mhMtP0uRH-112" value="1" style="edgeLabel;html=1;align=center;verticalAlign=middle;resizable=0;points=[];" vertex="1" connectable="0" parent="1">
          <mxGeometry x="362.99984908954764" y="-893.9980867978635" as="geometry">
            <mxPoint x="-21" y="-3" as="offset" />
          </mxGeometry>
        </mxCell>
        <mxCell id="--ZSGLMex57mhMtP0uRH-113" value="1" style="edgeLabel;html=1;align=center;verticalAlign=middle;resizable=0;points=[];" vertex="1" connectable="0" parent="1">
          <mxGeometry x="312.99984908954764" y="-893.9980867978635" as="geometry">
            <mxPoint x="-21" y="-3" as="offset" />
          </mxGeometry>
        </mxCell>
        <mxCell id="--ZSGLMex57mhMtP0uRH-116" value="1" style="edgeLabel;html=1;align=center;verticalAlign=middle;resizable=0;points=[];" vertex="1" connectable="0" parent="1">
          <mxGeometry x="381.99984908954764" y="-1013.9980867978635" as="geometry">
            <mxPoint x="-21" y="-3" as="offset" />
          </mxGeometry>
        </mxCell>
        <mxCell id="--ZSGLMex57mhMtP0uRH-117" value="1" style="edgeLabel;html=1;align=center;verticalAlign=middle;resizable=0;points=[];" vertex="1" connectable="0" parent="1">
          <mxGeometry x="432.99984908954764" y="-969.9980867978635" as="geometry">
            <mxPoint x="-21" y="-3" as="offset" />
          </mxGeometry>
        </mxCell>
        <mxCell id="--ZSGLMex57mhMtP0uRH-118" value="1" style="edgeLabel;html=1;align=center;verticalAlign=middle;resizable=0;points=[];" vertex="1" connectable="0" parent="1">
          <mxGeometry x="569.4998490895476" y="-893.9980867978635" as="geometry">
            <mxPoint x="-21" y="-3" as="offset" />
          </mxGeometry>
        </mxCell>
        <mxCell id="--ZSGLMex57mhMtP0uRH-119" value="1" style="edgeLabel;html=1;align=center;verticalAlign=middle;resizable=0;points=[];" vertex="1" connectable="0" parent="1">
          <mxGeometry x="612.9998490895476" y="-873.9980867978635" as="geometry">
            <mxPoint x="-21" y="-3" as="offset" />
          </mxGeometry>
        </mxCell>
        <mxCell id="--ZSGLMex57mhMtP0uRH-120" value="&lt;font style=&quot;vertical-align: inherit;&quot;&gt;&lt;font style=&quot;vertical-align: inherit;&quot;&gt;&lt;font style=&quot;vertical-align: inherit;&quot;&gt;&lt;font style=&quot;vertical-align: inherit;&quot;&gt;idAvaliacao&lt;/font&gt;&lt;/font&gt;&lt;/font&gt;&lt;/font&gt;" style="text;html=1;align=center;verticalAlign=middle;resizable=0;points=[];autosize=1;strokeColor=none;fillColor=none;fontSize=12;" vertex="1" parent="1">
          <mxGeometry x="387" y="-1070" width="80" height="30" as="geometry" />
        </mxCell>
        <mxCell id="--ZSGLMex57mhMtP0uRH-121" value="&lt;font style=&quot;vertical-align: inherit;&quot;&gt;&lt;font style=&quot;vertical-align: inherit;&quot;&gt;&lt;font style=&quot;vertical-align: inherit;&quot;&gt;&lt;font style=&quot;vertical-align: inherit;&quot;&gt;comentario&lt;/font&gt;&lt;/font&gt;&lt;/font&gt;&lt;/font&gt;" style="text;html=1;align=center;verticalAlign=middle;resizable=0;points=[];autosize=1;strokeColor=none;fillColor=none;fontSize=12;" vertex="1" parent="1">
          <mxGeometry x="387" y="-1054" width="80" height="30" as="geometry" />
        </mxCell>
      </root>
    </mxGraphModel>
  </diagram>
</mxfile>
